<svg height="128" viewBox="0 -960 5120 5120" width="128" version="1.1" id="svg1" xmlns="http://www.w3.org/2000/svg"
   xmlns:svg="http://www.w3.org/2000/svg">
   <defs>
      <linearGradient id="linearGradient" x1="480" y1="-658.41302" x2="480" y2="-150.19501"
         gradientUnits="userSpaceOnUse" gradientTransform="matrix(4.863352,0,0,4.863352,225.59106,3955.3432)">
         <stop style="stop-color:#548cb9;stop-opacity:1;" offset="0" id="stop2" />
         <stop style="stop-color:#4cb77f;stop-opacity:1;" offset="1" id="stop3" />
      </linearGradient>
   </defs>
   <rect x="0" y="-960" width="5120" height="5120" fill="white" />
   <path
      d="m 1907.5716,3422.9131 q -291.592,0 -389.3357,-99.013 -97.7388,-99.0081 -275.149,-99.0081 -69.2492,0 -131.3104,24.3167 -62.0613,24.3168 -228.7867,118.092 -108.90018,60.4757 -215.94742,-2.4317 Q 560,3301.9615 560,3176.1515 q 0,-60.4758 30.23546,-111.9106 30.23546,-51.4348 83.52321,-79.2435 245.06916,-133.426 337.37073,-168.0482 92.2967,-34.6271 231.9575,-34.6271 283.0277,0 379.0254,99.013 95.9977,99.013 273.4079,99.013 189.4567,0 281.1747,-99.013 91.7131,-99.013 383.3051,-99.013 283.0276,0 382.6194,99.013 99.5917,99.013 272.1337,99.013 189.4616,0 280.596,-99.013 91.1343,-99.013 382.7263,-99.013 138.4985,0 232.6481,34.6271 94.1496,34.6222 334.3555,168.0482 53.2829,27.8087 84.1019,79.2435 30.8191,51.4348 30.8191,111.9106 0,125.81 -109.4789,188.7175 -109.4741,62.9074 -218.3742,2.4317 -166.7255,-93.7752 -226.355,-118.092 -59.6296,-24.3167 -127.7165,-24.3167 -179.7349,0 -270.8693,99.0082 -91.1343,99.013 -382.7263,99.013 -283.0228,0 -383.8839,-99.013 -100.861,-99.0082 -280.5959,-99.0082 -187.132,0 -273.9867,99.0082 -86.8546,99.013 -378.4417,99.0129 z M 1389.3085,-1.630705 q 0,93.142915 -64.0698,157.212715 -64.0698,64.06979 -157.2176,64.06979 H 973.48705 q -93.14292,0 -157.21272,-64.06979 -64.06979,-64.0698 -64.06979,-157.212715 0,-93.14292 64.06979,-157.212725 64.0698,-64.0698 157.21272,-64.0698 h 194.53405 q 93.1478,0 157.2176,64.0698 64.0698,64.069805 64.0698,157.212725 z m 330.3918,712.588045 q 66.4966,66.50148 67.0803,157.79632 0.5836,91.29484 -65.9179,157.79144 l -137.3362,136.1738 q -61.6382,61.6382 -152.3543,62.2218 -90.7112,0.5836 -157.2127,-61.0546 -66.5014,-66.5014 -67.0802,-157.7962 -0.5836,-91.29489 65.9179,-157.79636 l 137.3361,-136.17385 q 61.6382,-61.63813 152.3495,-62.21687 90.7161,-0.58361 157.2175,61.05452 z M 2560,753.24905 q -405.9829,0 -691.0726,-285.0897 -285.0848,-285.08968 -285.0848,-691.07258 h 442.565 q 0,222.235735 155.6807,377.9165 155.676,155.67589 377.9117,155.67589 222.2357,0 377.9117,-155.67589 155.6807,-155.680765 155.6807,-377.9165 h 442.565 q 0,405.9829 -285.0848,691.07258 Q 2965.9829,753.24905 2560,753.24905 Z m 0,-976.16228 z m 0,1176.50806 q 93.143,0 157.2127,64.06977 64.0698,64.0698 64.0698,157.2128 v 194.534 q 0,93.1478 -64.0698,157.2175 -64.0697,64.0649 -157.2127,64.0649 -93.143,0 -157.2127,-64.0649 -64.0698,-64.0697 -64.0698,-157.2175 v -194.534 q 0,-93.143 64.0698,-157.2128 Q 2466.857,953.59483 2560,953.59483 Z m 840.2997,-238.93648 q 61.6381,-61.63812 154.7859,-61.63812 93.1429,0 154.7811,61.63812 l 137.3361,136.17386 q 66.5015,66.50148 68.9331,155.36469 2.4318,88.8583 -64.0697,155.3597 -66.5015,66.5015 -158.3751,66.5015 -91.8784,0 -158.3799,-66.5015 l -136.1739,-137.3362 q -61.638,-66.50144 -62.9026,-155.36461 -1.2693,-88.85831 64.065,-154.19744 z M 4367.7955,-1.630705 q 0,93.142915 -64.0699,157.212715 -64.0698,64.06979 -157.2126,64.06979 h -194.5341 q -93.1478,0 -157.2176,-64.06979 -64.0698,-64.0698 -64.0698,-157.212715 0,-93.14292 64.0698,-157.212725 64.0698,-64.0698 157.2176,-64.0698 h 194.5341 q 93.1428,0 157.2126,64.0698 64.0699,64.069805 64.0699,157.212725 z M 1907.5716,2644.7768 q -291.592,0 -389.3357,-99.013 -97.7388,-99.0081 -275.149,-99.0081 -69.2492,0 -131.3104,24.3167 -62.0613,24.3168 -228.7867,118.092 -108.90018,60.4757 -215.94742,-2.4317 Q 560,2523.8252 560,2398.0151 q 0,-60.4757 30.23546,-111.9105 30.23546,-51.4348 83.52321,-79.2435 245.06916,-133.4261 337.37073,-168.0483 92.2967,-34.627 231.9575,-34.627 283.0277,0 379.0254,99.0129 95.9977,99.0131 273.4079,99.0131 189.4567,0 281.1747,-99.0131 91.7131,-99.0129 383.3051,-99.0129 283.0276,0 382.6194,99.0129 99.5917,99.0131 272.1337,99.0131 189.4616,0 280.596,-99.0131 91.1343,-99.0129 382.7263,-99.0129 138.4985,0 232.6481,34.627 94.1496,34.6222 334.3555,168.0483 53.2829,27.8087 84.1019,79.2435 30.8191,51.4348 30.8191,111.9105 0,125.8101 -109.4789,188.7176 -109.4741,62.9074 -218.3742,2.4317 -166.7255,-93.7752 -226.355,-118.092 -59.6296,-24.3167 -127.7165,-24.3167 -179.7349,0 -270.8693,99.0081 -91.1343,99.0131 -382.7263,99.0131 -283.0228,0 -383.8839,-99.0131 -100.861,-99.0081 -280.5959,-99.0081 -187.132,0 -273.9867,99.0081 -86.8546,99.0131 -378.4417,99.013 z"
      style="opacity:1;fill:url(#linearGradient);" />
</svg>